<?xml version="1.0" encoding="UTF-8" standalone="no"?>
<!-- Created with Inkscape (http://www.inkscape.org/) -->

<svg
   width="800"
   height="800"
   viewBox="0 0 211.66666 211.66667"
   version="1.1"
   id="svg5"
   inkscape:version="1.1 (c68e22c387, 2021-05-23)"
   sodipodi:docname="picons_twitter.svg"
   xmlns:inkscape="http://www.inkscape.org/namespaces/inkscape"
   xmlns:sodipodi="http://sodipodi.sourceforge.net/DTD/sodipodi-0.dtd"
   xmlns="http://www.w3.org/2000/svg"
   xmlns:svg="http://www.w3.org/2000/svg">
  <sodipodi:namedview
     id="namedview7"
     pagecolor="#505050"
     bordercolor="#eeeeee"
     borderopacity="1"
     inkscape:pageshadow="0"
     inkscape:pageopacity="0"
     inkscape:pagecheckerboard="0"
     inkscape:document-units="mm"
     showgrid="false"
     inkscape:zoom="0.47433592"
     inkscape:cx="528.10675"
     inkscape:cy="382.64022"
     inkscape:window-width="1920"
     inkscape:window-height="1017"
     inkscape:window-x="-8"
     inkscape:window-y="-8"
     inkscape:window-maximized="1"
     inkscape:current-layer="layer1"
     units="px"
     width="800px" />
  <defs
     id="defs2" />
  <g
     inkscape:label="Слой 1"
     inkscape:groupmode="layer"
     id="layer1">
    <path
       d="m 210.67094,40.953743 c -7.6582,3.401912 -15.89433,5.697348 -24.54142,6.727306 8.8246,-5.284484 15.59714,-13.657222 18.78847,-23.63977 -8.25675,4.898437 -17.39725,8.455192 -27.13246,10.37274 -7.79225,-8.304206 -18.89807,-13.493932 -31.18645,-13.493932 -23.59656,0 -42.72758,19.131353 -42.72758,42.727989 0,3.348237 0.37757,6.607796 1.10633,9.734896 -35.511168,-1.779496 -66.997268,-18.788627 -88.070862,-44.64155 -3.676718,6.30852 -5.784149,13.647155 -5.784149,21.480794 0,14.823166 7.542823,27.900219 19.007571,35.564803 -7.002133,-0.225296 -13.593337,-2.144593 -19.352542,-5.346634 -0.0039,0.177358 -0.0039,0.357913 -0.0039,0.541666 0,20.698189 14.72843,37.967449 34.276719,41.895699 -3.585823,0.97466 -7.361049,1.49875 -11.258437,1.49875 -2.755952,0 -5.431155,-0.26684 -8.040422,-0.76856 5.439615,16.97414 21.218601,29.32883 39.912498,29.67348 -14.623181,11.46085 -33.044818,18.29139 -53.065725,18.29139 -3.4471735,0 -6.8469862,-0.20454 -10.1909876,-0.596 18.9124596,12.12507 41.3693066,19.19736 65.4981576,19.19736 78.593999,0 121.567569,-65.10836 121.567569,-121.571889 0,-1.849476 -0.032,-3.696872 -0.12777,-5.52782 8.34575,-6.023469 15.59298,-13.549371 21.31718,-22.120402 z"
       id="path2385"
       style="stroke-width:4.22757" />
    <path
       style="fill:#ffffff;fill-rule:evenodd;stroke:none;stroke-width:6.72519"
       d="M 211.27876,715.64513 C 151.49098,709.38819 81.28521,687.08541 32.767063,658.93601 l -17.829991,-10.34467 30.479255,0.0711 C 116.65381,648.8283 177.39096,630.21367 234.85107,590.60478 l 15.59716,-10.75158 -20.86768,-3.47121 c -11.47724,-1.90922 -26.47238,-5.46906 -33.32254,-7.91081 -27.48668,-9.79765 -56.90834,-32.0725 -73.77117,-55.85141 -9.1138,-12.85171 -22.34684,-37.29155 -22.34684,-41.27195 0,-1.27979 6.61724,-1.60473 17.39274,-0.85404 17.10366,1.19154 47.33555,-2.05561 50.7286,-5.44867 0.94787,-0.94787 -2.72192,-2.84273 -8.1551,-4.21083 C 112.92379,448.9536 69.273866,408.54551 51.972864,360.73186 46.282304,345.00525 39.483529,309.77669 41.709424,307.5508 c 0.47342,-0.47342 5.98724,1.39485 12.252935,4.15174 16.335448,7.18752 60.935121,17.00839 60.935121,13.41794 0,-0.54656 -5.10979,-5.20039 -11.35508,-10.34185 -25.678636,-21.14008 -43.986965,-48.71235 -54.330369,-81.82136 -7.132314,-22.83038 -7.124335,-63.66686 0.01687,-86.41112 4.09155,-13.03129 11.404184,-30.34921 14.109332,-33.41399 0.345264,-0.39117 12.798856,11.56908 27.674649,26.57831 29.911448,30.17978 46.526498,43.91214 78.389588,64.78912 61.94358,40.58597 135.50849,65.97469 209.72693,72.38095 l 18.62538,1.60768 -1.11558,-5.57791 c -7.55013,-37.75072 -0.18426,-80.4616 19.62732,-113.80953 21.69104,-36.51143 57.36592,-63.229367 98.66604,-73.893804 20.8263,-5.377729 55.42735,-5.75098 75.78142,-0.817474 21.23287,5.146511 50.13293,19.875058 67.2488,34.272478 l 14.9586,12.58276 19.05632,-4.93639 c 21.01899,-5.44479 44.5146,-14.31694 64.10858,-24.20794 7.03071,-3.549098 13.34609,-5.889928 14.03417,-5.201846 1.87675,1.87673 -9.33117,23.678046 -19.5494,38.026916 -10.19183,14.31179 -25.37263,29.15591 -39.03394,38.16825 -8.18683,5.40083 -8.70554,6.1838 -4.50172,6.79525 7.37713,1.07302 37.01404,-5.47367 61.18744,-13.5161 12.05394,-4.01031 22.2502,-6.95754 22.65835,-6.54939 1.13995,1.13994 -31.26205,39.34527 -41.67146,49.13497 -5.07529,4.77315 -14.69908,13.05741 -21.38618,18.40947 l -12.15838,9.73103 -0.87384,30.07936 c -5.69505,196.03777 -130.98116,369.27696 -308.96078,427.2151 -24.77626,8.06546 -49.4555,13.89353 -76.94969,18.17185 -25.6373,3.98936 -92.2434,5.7337 -117.60209,3.07986 z"
       id="path2430"
       transform="scale(0.26458333)" />
  </g>
</svg>
