<?xml version="1.0" encoding="UTF-8" standalone="no"?>
<!-- Created with Inkscape (http://www.inkscape.org/) -->

<svg
   width="800"
   height="800"
   viewBox="0 0 211.66666 211.66667"
   version="1.1"
   id="svg5"
   inkscape:version="1.1 (c68e22c387, 2021-05-23)"
   sodipodi:docname="picons_instagram.svg"
   xmlns:inkscape="http://www.inkscape.org/namespaces/inkscape"
   xmlns:sodipodi="http://sodipodi.sourceforge.net/DTD/sodipodi-0.dtd"
   xmlns="http://www.w3.org/2000/svg"
   xmlns:svg="http://www.w3.org/2000/svg">
  <sodipodi:namedview
     id="namedview7"
     pagecolor="#505050"
     bordercolor="#eeeeee"
     borderopacity="1"
     inkscape:pageshadow="0"
     inkscape:pageopacity="0"
     inkscape:pagecheckerboard="0"
     inkscape:document-units="mm"
     showgrid="false"
     inkscape:zoom="0.47433592"
     inkscape:cx="528.10675"
     inkscape:cy="382.64022"
     inkscape:window-width="1920"
     inkscape:window-height="1017"
     inkscape:window-x="-8"
     inkscape:window-y="-8"
     inkscape:window-maximized="1"
     inkscape:current-layer="layer1"
     units="px"
     width="800px" />
  <defs
     id="defs2" />
  <g
     inkscape:label="Слой 1"
     inkscape:groupmode="layer"
     id="layer1">
    <g
       id="g1969"
       transform="matrix(4.144424,0,0,4.144424,-9.4967619,-15.856751)">
	<path
   d="m 28.2,16.7 c -7,0 -12.8,5.7 -12.8,12.8 0,7.1 5.7,12.8 12.8,12.8 7.1,0 12.8,-5.8 12.8,-12.8 0,-7 -5.8,-12.8 -12.8,-12.8 z m 0,21 C 23.7,37.7 20,34 20,29.5 c 0,-4.5 3.7,-8.2 8.2,-8.2 4.5,0 8.2,3.7 8.2,8.2 0,4.5 -3.7,8.2 -8.2,8.2 z"
   id="path1963" />

	<circle
   cx="41.5"
   cy="16.4"
   r="2.9000001"
   id="circle1965" />

	<path
   d="M 49,8.9 C 46.4,6.2 42.7,4.8 38.5,4.8 H 17.9 C 9.2,4.8 3.4,10.6 3.4,19.3 v 20.5 c 0,4.3 1.4,8 4.2,10.7 2.7,2.6 6.3,3.9 10.4,3.9 h 20.4 c 4.3,0 7.9,-1.4 10.5,-3.9 C 51.6,47.9 53,44.2 53,39.9 V 19.3 C 53,15.1 51.6,11.5 49,8.9 Z m -0.6,31 c 0,3.1 -0.9,5.6 -2.7,7.3 -1.8,1.7 -4.3,2.6 -7.3,2.6 H 18 c -3,0 -5.5,-0.9 -7.3,-2.6 C 8.9,45.4 8,42.9 8,39.8 V 19.3 C 8,16.3 8.9,13.8 10.7,12 12.4,10.3 15,9.4 18,9.4 h 20.6 c 3,0 5.5,0.9 7.3,2.7 1.7,1.8 2.7,4.3 2.7,7.2 v 20.6 z"
   id="path1967" />

</g>
    <path
       style="fill:#ffffff;fill-rule:evenodd;stroke:none;stroke-width:6.72519"
       d="M 223.47032,790.26813 C 185.10056,785.8201 160.75882,778.93989 133.11149,764.72815 74.048908,734.36783 37.130214,683.52534 22.669628,612.63343 c -3.361479,-16.4794 -3.695733,-35.37396 -3.695733,-208.91111 0,-152.04433 0.584239,-194.00427 2.876706,-206.60463 17.046451,-93.69442 77.01631,-155.518749 171.110889,-176.402206 13.8138,-3.065851 38.05363,-3.60134 197.05747,-4.353261 122.06912,-0.577257 188.63347,-0.104731 203.73289,1.446254 56.03474,5.755791 98.48755,25.023137 134.78532,61.172761 37.37413,37.221602 57.08189,79.735522 63.20099,136.338362 1.48482,13.73476 1.96798,82.74315 1.42246,203.1602 -0.89064,196.59848 -0.64341,192.03996 -12.34478,227.62653 -26.72062,81.26361 -93.85233,133.00344 -185.88533,143.26573 -18.4822,2.06088 -354.42161,2.87127 -371.46019,0.89607 z m 388.96485,-74.2134 c 54.16096,-14.11811 91.40491,-49.22619 104.33224,-98.34903 7.2789,-27.6592 8.16628,-49.3269 8.93622,-218.1998 0.82136,-180.15226 0.45038,-188.41121 -9.7593,-217.26258 -19.9726,-56.44018 -63.4703,-88.562242 -128.24306,-94.704573 -28.72275,-2.723747 -333.7414,-2.772565 -361.06863,-0.05779 -42.45304,4.217424 -72.28757,16.938883 -95.93652,40.907373 -24.09489,24.42046 -36.862389,53.7459 -41.014272,94.20493 -2.923023,28.48412 -2.923023,333.77401 0,362.25813 8.118523,79.11294 55.876202,126.96812 134.842582,135.11787 8.69636,0.89751 95.50194,1.43491 192.90126,1.19422 175.3309,-0.43326 177.26767,-0.48399 195.00948,-5.10875 z"
       id="path2017"
       transform="scale(0.26458333)" />
    <path
       style="fill:#ffffff;fill-rule:evenodd;stroke:none;stroke-width:6.72519"
       d="M 377.36969,599.72213 C 256.05772,580.99022 179.06752,459.19799 215.48793,343.63832 c 20.42603,-64.81051 72.07674,-115.00969 137.8279,-133.95454 19.97818,-5.7563 60.93481,-7.84227 83.26142,-4.24061 66.18997,10.67759 126.96329,58.41857 152.87619,120.09314 20.08001,47.79189 20.55567,102.83015 1.29514,149.86517 -24.96535,60.96646 -77.33669,105.95692 -141.16114,121.26679 -16.57665,3.97631 -55.56613,5.62506 -72.21775,3.05386 z m 68.51685,-75.00201 c 41.24165,-13.2072 74.21072,-48.36939 85.23191,-90.90163 4.19669,-16.19555 4.26061,-46.54844 0.1324,-62.85755 -11.67578,-46.12659 -49.8974,-83.854 -95.90537,-94.66524 -67.95457,-15.9684 -137.7212,26.65892 -154.93525,94.66524 -4.06498,16.05923 -4.0855,47.37502 -0.0412,62.90207 10.69444,41.05871 43.79652,77.02898 83.04701,90.24269 27.76215,9.34618 54.58025,9.54598 82.47053,0.61442 z"
       id="path2056"
       transform="scale(0.26458333)" />
    <path
       style="fill:#ffffff;fill-rule:evenodd;stroke:none;stroke-width:6.72519"
       d="m 596.62359,237.39323 c -35.44554,-16.41075 -34.51796,-66.22263 1.51345,-81.27381 23.10791,-9.65273 50.97408,3.82557 58.27239,28.18516 3.5513,11.85318 2.9422,18.95261 -2.65788,30.97962 -10.30075,22.12238 -35.79145,31.98751 -57.12796,22.10903 z"
       id="path2095"
       transform="scale(0.26458333)" />
  </g>
</svg>
